<?xml version="1.0" encoding="UTF-8" standalone="no"?>
<!DOCTYPE svg PUBLIC "-//W3C//DTD SVG 1.1//EN"
 "http://www.w3.org/Graphics/SVG/1.1/DTD/svg11.dtd">
<!-- Generated by graphviz version 2.34.0 (20130907.0228)
 -->
<!-- Title: G Pages: 1 -->
<svg width="217pt" height="132pt"
 viewBox="0.00 0.00 217.00 132.00" xmlns="http://www.w3.org/2000/svg" xmlns:xlink="http://www.w3.org/1999/xlink">
<g id="graph0" class="graph" transform="scale(1 1) rotate(0) translate(4 128)">
<title>G</title>
<polygon fill="white" stroke="white" points="-4,4 -4,-128 213,-128 213,4 -4,4"/>
<!-- Questions -->
<g id="node1" class="node"><title>Questions</title>
<ellipse fill="#00ff00" fill-opacity="0.372549" stroke="black" cx="47" cy="-106" rx="47.169" ry="18"/>
<text text-anchor="middle" x="47" y="-102.3" font-family="Times,serif" font-size="14.00">Questions</text>
</g>
<!-- Ideas -->
<g id="node2" class="node"><title>Ideas</title>
<ellipse fill="#00ff00" fill-opacity="0.372549" stroke="black" cx="180" cy="-106" rx="29.3479" ry="18"/>
<text text-anchor="middle" x="180" y="-102.3" font-family="Times,serif" font-size="14.00">Ideas</text>
</g>
<!-- Questions&#45;&gt;Ideas -->
<g id="edge1" class="edge"><title>Questions&#45;&gt;Ideas</title>
<path fill="none" stroke="black" d="M104.503,-106C116.469,-106 128.83,-106 139.998,-106"/>
<polygon fill="black" stroke="black" points="104.265,-102.5 94.2653,-106 104.265,-109.5 104.265,-102.5"/>
<polygon fill="black" stroke="black" points="140.289,-109.5 150.289,-106 140.289,-102.5 140.289,-109.5"/>
<text text-anchor="middle" x="122.051" y="-112.8" font-family="Times,serif" font-size="14.00">lead to</text>
</g>
<!-- Sources -->
<g id="node3" class="node"><title>Sources</title>
<ellipse fill="#00ff00" fill-opacity="0.372549" stroke="black" cx="113" cy="-18" rx="39.4691" ry="18"/>
<text text-anchor="middle" x="113" y="-14.3" font-family="Times,serif" font-size="14.00">Sources</text>
</g>
<!-- Questions&#45;&gt;Sources -->
<g id="edge2" class="edge"><title>Questions&#45;&gt;Sources</title>
<path fill="none" stroke="black" d="M65.9177,-80.3497C74.8633,-68.6933 85.5082,-54.8226 94.4115,-43.2214"/>
<polygon fill="black" stroke="black" points="63.0371,-78.3543 59.7255,-88.4183 68.5903,-82.6161 63.0371,-78.3543"/>
<polygon fill="black" stroke="black" points="97.2258,-45.3031 100.537,-35.2391 91.6726,-41.0413 97.2258,-45.3031"/>
<text text-anchor="middle" x="105" y="-58.3" font-family="Times,serif" font-size="14.00">lead to</text>
</g>
<!-- Ideas&#45;&gt;Sources -->
<g id="edge3" class="edge"><title>Ideas&#45;&gt;Sources</title>
<path fill="none" stroke="black" d="M161.396,-81.1201C152.237,-69.3639 141.213,-55.2134 132.001,-43.3893"/>
<polygon fill="black" stroke="black" points="158.804,-83.4887 167.711,-89.2263 164.326,-79.1866 158.804,-83.4887"/>
<polygon fill="black" stroke="black" points="134.573,-40.9956 125.666,-35.2581 129.051,-45.2977 134.573,-40.9956"/>
<text text-anchor="middle" x="172" y="-58.3" font-family="Times,serif" font-size="14.00">lead to</text>
</g>
</g>
</svg>
